<?xml version="1.0" standalone="no"?>
<!DOCTYPE svg PUBLIC "-//W3C//DTD SVG 20010904//EN"
 "http://www.w3.org/TR/2001/REC-SVG-20010904/DTD/svg10.dtd">
<svg version="1.0" xmlns="http://www.w3.org/2000/svg"
 width="1196.000000pt" height="1196.000000pt" viewBox="0 0 1196.000000 1196.000000"
 preserveAspectRatio="xMidYMid meet">
<metadata>
Created by potrace 1.14, written by Peter Selinger 2001-2017
</metadata>
<g transform="translate(0.000000,1196.000000) scale(0.100000,-0.100000)"
fill="#000000" stroke="none">
<path d="M7126 11628 c-136 -18 -268 -68 -436 -164 -36 -20 -83 -47 -105 -59
-22 -13 -112 -64 -199 -114 -88 -50 -161 -91 -163 -91 -2 0 -20 -10 -41 -23
-20 -13 -62 -37 -92 -54 -30 -16 -140 -78 -245 -138 -104 -59 -210 -119 -235
-133 -25 -14 -126 -71 -225 -127 -184 -104 -224 -127 -355 -200 -41 -23 -135
-77 -208 -119 -74 -42 -136 -76 -139 -76 -3 0 -17 -8 -31 -18 -15 -11 -58 -36
-97 -57 -38 -21 -115 -63 -170 -95 -108 -62 -435 -247 -525 -297 -30 -17 -95
-54 -143 -82 -49 -28 -91 -51 -93 -51 -2 0 -21 -11 -42 -23 -36 -23 -85 -51
-187 -107 -27 -15 -108 -61 -180 -102 -255 -147 -524 -298 -529 -298 -3 0 -25
-13 -49 -30 -25 -16 -49 -30 -54 -30 -4 0 -25 -11 -44 -25 -20 -13 -64 -39
-98 -57 -81 -43 -106 -57 -166 -93 -27 -16 -68 -39 -90 -51 -22 -11 -56 -30
-75 -41 -51 -30 -168 -96 -220 -125 -25 -14 -121 -69 -214 -122 -93 -53 -170
-96 -173 -96 -2 0 -20 -10 -41 -23 -20 -13 -62 -37 -92 -54 -82 -45 -142 -79
-274 -155 -65 -37 -120 -68 -122 -68 -10 0 -195 -116 -233 -147 -197 -159
-335 -398 -369 -642 -10 -73 -6 -261 7 -326 20 -99 71 -236 114 -310 20 -33
74 -127 96 -167 12 -21 31 -55 42 -75 12 -21 33 -58 47 -83 14 -25 81 -144
150 -265 69 -121 136 -240 150 -265 13 -25 28 -49 32 -55 4 -5 21 -35 37 -65
17 -30 39 -71 50 -90 34 -60 194 -343 221 -390 28 -51 98 -175 132 -235 13
-22 31 -53 41 -70 10 -16 23 -39 28 -50 5 -11 23 -45 41 -75 33 -55 186 -326
243 -430 17 -30 70 -124 119 -209 48 -84 88 -155 88 -157 0 -2 18 -33 40 -69
22 -36 40 -67 40 -70 0 -2 29 -54 65 -116 36 -61 65 -113 65 -115 0 -2 13 -25
29 -52 33 -57 72 -126 114 -202 17 -30 38 -67 49 -82 10 -14 18 -28 18 -31 0
-3 24 -47 53 -99 30 -51 105 -183 167 -293 62 -110 150 -265 195 -345 46 -80
93 -163 105 -185 26 -47 177 -313 190 -335 25 -42 128 -227 133 -240 4 -8 16
-28 26 -45 10 -16 51 -88 91 -160 40 -71 84 -147 97 -167 12 -21 23 -40 23
-42 0 -3 29 -55 65 -117 36 -61 65 -113 65 -114 0 -7 177 -314 222 -384 93
-147 231 -272 387 -350 60 -30 201 -84 201 -76 0 2 12 0 27 -6 80 -30 317 -31
445 0 110 26 186 57 307 125 106 59 615 347 671 379 19 11 60 33 90 50 30 17
67 38 82 49 14 10 28 18 31 18 4 0 78 41 247 138 25 14 74 42 110 62 36 20
135 76 220 124 85 49 175 100 200 113 25 14 71 41 103 59 32 19 61 34 63 34 3
0 18 8 32 18 25 18 124 74 200 113 18 10 38 22 45 27 7 5 37 23 67 39 62 34
334 187 485 273 55 32 120 69 145 82 25 14 110 63 190 108 80 45 201 114 270
153 69 38 139 78 155 88 17 10 62 34 100 55 39 20 77 43 86 50 8 8 18 14 22
14 3 0 28 13 55 29 26 15 68 39 93 53 217 122 336 190 349 198 8 6 22 13 30
17 8 4 87 48 175 98 88 50 167 94 175 98 8 4 31 17 50 28 63 37 431 247 537
305 26 15 129 73 228 129 99 57 198 113 220 125 22 12 69 39 105 60 36 21 97
54 135 75 39 21 77 44 86 51 8 8 19 14 23 14 9 0 85 50 121 80 171 144 286
326 342 538 19 77 25 123 26 222 2 249 -31 351 -229 696 -53 93 -100 175 -105
184 -12 23 -119 213 -129 230 -32 54 -72 125 -105 185 -21 39 -41 75 -45 80
-4 6 -19 31 -34 58 -47 84 -78 140 -107 189 -16 27 -29 51 -29 53 0 3 -18 34
-40 70 -22 36 -40 67 -40 69 0 2 -61 111 -136 242 -75 132 -149 262 -164 289
-15 28 -36 66 -47 85 -11 19 -108 190 -215 380 -108 190 -219 385 -247 434
-28 49 -51 90 -51 92 0 2 -29 53 -65 115 -36 61 -65 113 -65 115 0 1 -29 53
-65 115 -36 61 -65 113 -65 114 0 2 -20 38 -45 79 -25 42 -45 79 -45 81 0 3
-10 22 -23 43 -13 20 -37 62 -54 92 -17 30 -49 87 -72 127 -22 39 -50 88 -61
107 -11 20 -30 53 -41 74 -12 20 -41 71 -64 112 -23 41 -52 93 -64 115 -13 22
-33 58 -46 80 -12 22 -61 108 -109 192 -47 83 -98 173 -112 200 -15 26 -54 95
-87 153 -33 58 -71 125 -85 150 -31 55 -34 60 -167 295 -59 105 -119 210 -133
235 -14 25 -71 126 -127 225 -57 99 -113 198 -125 220 -66 119 -113 181 -204
268 -135 128 -299 214 -482 252 -90 19 -251 25 -338 13z"/>
</g>
</svg>
